<?xml version="1.0" encoding="utf-8"?><svg viewBox="0 0 60 60" xmlns="http://www.w3.org/2000/svg" xmlns:xlink="http://www.w3.org/1999/xlink"><style>:root>svg{display:none}:root>svg:target{display:block}</style><svg fill="none" viewBox="0 0 12 13" id="arrow" xmlns="http://www.w3.org/2000/svg"><path d="M11.298 12.107a.5.5 0 00.5-.5v-4.5a.5.5 0 10-1 0v4h-4a.5.5 0 000 1h4.5zM.338 1.354L10.945 11.96l.707-.707L1.045.646l-.707.708z" fill="#777"/></svg><svg fill="none" viewBox="0 0 8 17" id="arrow-ligth" xmlns="http://www.w3.org/2000/svg"><path d="M3.951 16.156a.5.5 0 00.707 0l3.182-3.182a.5.5 0 10-.707-.707l-2.828 2.829-2.829-2.829a.5.5 0 10-.707.707l3.182 3.182zM3.805.803v15h1v-15h-1z" fill="#777"/></svg><svg fill="none" viewBox="0 0 30 30" id="arrow-up" xmlns="http://www.w3.org/2000/svg"><path d="M22.5 7.5l-15 15M10 7.5h12.5V20" stroke="#000" stroke-linecap="round" stroke-linejoin="round"/></svg><svg fill="none" viewBox="0 0 21 21" id="attach-file" xmlns="http://www.w3.org/2000/svg"><path d="M16.71 21c.846 0 1.598-.349 2.254-1.048.695-.74 1.042-1.636 1.042-2.691s-.347-1.953-1.042-2.692L8.074 2.271c-.556-.605-1.196-.995-1.922-1.17-.726-.174-1.462-.127-2.207.141-.745.27-1.433.733-2.064 1.392a5.53 5.53 0 00-.559.756c-.17.275-.31.564-.417.867a6.036 6.036 0 00-.331 1.966c.025 1.424.48 2.614 1.364 3.568l8.238 9.314a.558.558 0 00.843.04.652.652 0 00.19-.453.672.672 0 00-.162-.474L2.81 8.904c-.67-.726-1.01-1.627-1.023-2.702-.012-1.075.31-1.956.966-2.641.404-.444.852-.78 1.345-1.008a2.775 2.775 0 011.59-.222c.569.08 1.074.356 1.516.827l10.89 12.298c.467.497.7 1.096.7 1.794 0 .7-.233 1.297-.7 1.795a2.22 2.22 0 01-.7.514 1.538 1.538 0 01-.796.131c-.556-.027-1.074-.302-1.553-.827L6.388 9.065a2.81 2.81 0 01-.36-.474 1.488 1.488 0 01-.15-.322 1.67 1.67 0 01-.077-.343.706.706 0 01.057-.353c.05-.12.126-.235.227-.343.24-.268.474-.39.701-.363.24.027.512.195.815.504l6.515 7.38c.075.08.164.137.265.17a.548.548 0 00.312.01.554.554 0 00.275-.16.591.591 0 00.19-.444.697.697 0 00-.171-.464L8.472 6.464c-.518-.537-1.042-.833-1.572-.887-.606-.054-1.162.188-1.667.726-.48.497-.691 1.082-.634 1.754.056.672.363 1.304.918 1.895l8.655 9.819c.708.752 1.497 1.156 2.368 1.21.025 0 .054.003.085.01.032.006.06.01.085.01z" fill="#393246"/></svg><svg fill="none" viewBox="0 0 60 60" id="check-accept" xmlns="http://www.w3.org/2000/svg"><path d="M27.5 58C12.338 58 0 45.663 0 30.5 0 15.338 12.338 3 27.5 3a27.409 27.409 0 0114.835 4.347 1.876 1.876 0 11-2.027 3.158A23.646 23.646 0 0027.5 6.75C14.405 6.75 3.75 17.405 3.75 30.5S14.405 54.25 27.5 54.25 51.25 43.595 51.25 30.5c0-.783-.038-1.558-.11-2.32a1.875 1.875 0 113.733-.362c.084.882.127 1.777.127 2.682C55 45.663 42.663 58 27.5 58z" fill="#41A239"/><path d="M26.97 40c-.475 0-.95-.181-1.31-.545l-11.117-11.16a1.866 1.866 0 010-2.632 1.848 1.848 0 012.62 0l9.81 9.846L52.835 9.545a1.849 1.849 0 012.621 0 1.866 1.866 0 010 2.631l-27.176 27.28A1.853 1.853 0 0126.97 40z" fill="#41A239"/></svg><svg fill="none" viewBox="0 0 26 25" id="clock" xmlns="http://www.w3.org/2000/svg"><path d="M12.92 23.333A10.408 10.408 0 012.505 12.917C2.504 7.157 7.16 2.5 12.92 2.5s10.416 4.657 10.416 10.417-4.657 10.416-10.416 10.416zm0-19.608a9.179 9.179 0 00-9.19 9.192 9.179 9.179 0 009.19 9.19 9.179 9.179 0 009.192-9.19 9.179 9.179 0 00-9.191-9.192z" fill="#393246"/><path d="M15.184 17.996l-3.75-3.75V7.46h1.19v6.31l3.393 3.392-.833.834z" fill="#393246"/></svg><svg fill="none" viewBox="0 0 26 26" id="location" xmlns="http://www.w3.org/2000/svg"><path d="M21.881 9.72c0 2.277-1.237 5.354-2.972 8.225-1.607 2.659-3.563 5.016-5.157 6.279-1.617-1.26-3.573-3.618-5.173-6.278-1.726-2.87-2.95-5.947-2.95-8.227 0-4.571 3.647-8.26 8.126-8.26 4.48 0 8.126 3.689 8.126 8.26z" stroke="#393246" stroke-width="1.25"/><circle cx="13.756" cy="9.585" r="3.125" stroke="#393246" stroke-width="1.25"/></svg><svg fill="none" viewBox="0 0 45 45" id="logo" xmlns="http://www.w3.org/2000/svg"><path d="M0 0h4.58v40.299h13.473v4.567H0V0z" fill="#fff"/><path d="M13.472 36.135h4.576v-9.001h4.44V22.57h-4.44V4.701h8.892V45h15.368s2.691-.134 2.691-3.22V2.82S45.134.138 42.04.138H35.97v4.428h4.44v35.872h-8.886V2.821S31.391.137 29.103.137H15.628s-2.153.402-2.153 2.684l-.003 33.314z" fill="#fff"/></svg><svg fill="none" viewBox="0 0 26 25" id="mail" xmlns="http://www.w3.org/2000/svg"><path d="M19.379 5c.829 0 1.624.32 2.21.892.586.57.915 1.345.915 2.153v9.743c0 .808-.33 1.582-.915 2.154a3.167 3.167 0 01-2.21.891H5.629c-.829 0-1.624-.32-2.21-.891a3.006 3.006 0 01-.915-2.154V8.045c0-.808.33-1.582.915-2.153A3.167 3.167 0 015.63 5h13.75zm1.875 4.824L12.82 14.66a.636.636 0 01-.532.046l-.103-.046-8.432-4.833v7.961c0 .485.197.95.55 1.292a1.9 1.9 0 001.325.535h13.75a1.9 1.9 0 001.326-.535c.351-.342.549-.807.549-1.291V9.823zm-1.875-3.606H5.629a1.9 1.9 0 00-1.326.535c-.352.343-.55.807-.55 1.292v.368l8.75 5.015 8.75-5.018v-.365c0-.485-.197-.95-.548-1.292a1.9 1.9 0 00-1.326-.535z" fill="#393246"/></svg><svg fill="none" viewBox="0 0 30 30" id="phone" xmlns="http://www.w3.org/2000/svg"><path d="M19.873 26c-4.384 0-8.327-1.812-11.2-4.687C5.798 18.44 4 14.508 4 10.122c0-.922.41-1.748 1.05-2.311l2.502-2.382A1.5 1.5 0 018.608 5c.532 0 .999.269 1.274.679l2.541 3.553c.18.25.282.557.282.89 0 .454-.205.87-.519 1.152l-2.035 1.793c-.282.282-.519.679-.519 1.152-.006 1.127.832 2.677 2.151 3.996s2.867 2.157 3.994 2.15c.467 0 .87-.236 1.152-.518l1.799-2.03c.281-.32.69-.518 1.152-.518.332 0 .633.102.89.282l3.552 2.542a1.53 1.53 0 01.256 2.33l-2.381 2.503A3.139 3.139 0 0119.873 26z" stroke="#fff" stroke-miterlimit="10"/></svg><svg fill="none" viewBox="0 0 50 50" id="tap-single" xmlns="http://www.w3.org/2000/svg"><path d="M24.48 7.812a9.375 9.375 0 00-6.771 15.86v.445a7.563 7.563 0 00-3.075-.104 11.925 11.925 0 01-2.134-6.826c0-6.616 5.364-11.979 11.98-11.979 6.615 0 11.979 5.364 11.979 11.98a11.95 11.95 0 01-.857 4.454 7.304 7.304 0 00-.315-.075l-2.276-.488a9.375 9.375 0 00-8.532-13.267zm-2.084 9.375a2.083 2.083 0 114.167 0v6.25c0 .615.429 1.145 1.029 1.273l6.711 1.44a3.385 3.385 0 012.553 4.209l-2.39 8.694a1.823 1.823 0 01-1.546 1.327l-6.502.761a.337.337 0 01-.225-.064.781.781 0 01-.272-.323c-1.495-3.2-5.308-6.681-12.804-10.125a2.954 2.954 0 013.828-1.852l3.699 1.361a1.301 1.301 0 001.752-1.222V17.187zm2.083-4.687a4.687 4.687 0 00-4.687 4.687v9.863l-1.948-.717c-3.269-1.203-6.826.863-7.401 4.299a2.021 2.021 0 001.164 2.17c7.597 3.425 10.829 6.644 11.955 9.053.509 1.09 1.69 2.045 3.159 1.873l6.502-.762a4.427 4.427 0 003.754-3.223l2.39-8.694a5.989 5.989 0 00-4.518-7.444l-5.682-1.22v-5.198a4.688 4.688 0 00-4.688-4.687z" fill="#fff"/></svg></svg>